<?xml version="1.0" standalone="no"?><!DOCTYPE svg PUBLIC "-//W3C//DTD SVG 1.1//EN" "http://www.w3.org/Graphics/SVG/1.1/DTD/svg11.dtd"><svg t="1725346985337" class="icon" viewBox="0 0 1024 1024" version="1.1" xmlns="http://www.w3.org/2000/svg" p-id="7727" xmlns:xlink="http://www.w3.org/1999/xlink" width="200" height="200"><path d="M874.538667 114.368c22.848 245.845333-26.026667 420.416-149.696 520.469333-120.789333 97.706667-258.282667 121.109333-408.448 69.802667-25.088 61.44-41.728 129.92-49.92 205.461333a32 32 0 0 1-63.616-6.869333c13.866667-128.042667 50.688-238.656 110.677333-331.456 61.141333-94.592 150.229333-162.005333 266.112-201.877333a32 32 0 0 1 20.821333 60.522666c-102.656 35.306667-180.032 93.866667-233.173333 176.106667-8.32 12.842667-16.149333 26.112-23.509333 39.765333 126.784 41.365333 239.082667 21.077333 340.8-61.226666 95.210667-77.013333 139.413333-212.138667 130.24-407.786667l-0.597334-11.008-5.674666 2.517333c-85.866667 37.205333-194.794667 68.736-326.826667 94.741334l-23.04 4.522666c-141.290667 29.568-201.301333 124.181333-184.213333 295.893334a32 32 0 0 1-63.68 6.336C190.933333 370.666667 268.010667 245.76 438.293333 206.997333l7.573334-1.642666 38.293333-7.573334c146.048-29.653333 260.736-66.069333 343.850667-108.885333a32 32 0 0 1 46.506666 25.472z" fill="#FF4A00" p-id="7728"></path></svg>